<svg xmlns="http://www.w3.org/2000/svg" viewBox="0 0 152.53 29.01"><defs><style>.a{fill:#27aae1;}.b{fill:#2292c2;}.c{fill:#fff;}</style></defs><title>logo</title><polygon class="a" points="30.86 15.84 32.84 13.04 25.11 6.76 25.11 0.24 21.08 0.24 21.08 3.63 16.42 0 0 13.04 1.99 15.84 5.45 13.53 5.45 25.88 3.06 25.88 3.06 29.01 29.78 29.01 29.78 25.88 27.39 25.88 27.39 13.53 30.86 15.84"/><polygon class="b" points="30.86 15.84 32.84 13.04 25.11 6.76 25.11 0.24 21.08 0.24 21.08 3.63 16.42 0 16.42 29.01 29.78 29.01 29.78 25.88 27.39 25.88 27.39 13.53 30.86 15.84"/><path class="c" d="M24.07,27.85l-0.88,1.54-0.53-2.14-0.22.6H21.57L20.69,31.7,19.9,26.38l-0.32,1.47h-1.1l-1,1.8L17,27.07l-0.29.78H13.3a4.22,4.22,0,0,0,.54.66L20,34.65l5.94-5.94,0.21-.21a4.22,4.22,0,0,0,.54-0.66h-2.6Z" transform="translate(-3.56 -10.83)"/><path class="c" d="M16.31,27.29L17.15,25l0.59,3,0.41-.74h1l0.87-4,0.8,5.41,0.31-1.38h0.93l0.71-2,0.63,2.57,0.35-.6H27a4.2,4.2,0,0,0-6.78-4.72L20,22.78l-0.21-.21A4.2,4.2,0,0,0,13,27.29h3.31Z" transform="translate(-3.56 -10.83)"/><path class="a" d="M52,33.94H50.14V28.79H44.87v5.15H43V22.51h1.87v4.67h5.27V22.51H52V33.94Z" transform="translate(-3.56 -10.83)"/><path class="a" d="M58.12,34.09A4.18,4.18,0,0,1,55,32.92a4.46,4.46,0,0,1-1.14-3.24,4.9,4.9,0,0,1,1.05-3.33,3.64,3.64,0,0,1,2.9-1.21,3.56,3.56,0,0,1,2.7,1,4,4,0,0,1,1,2.86v1H55.72A2.84,2.84,0,0,0,56.4,32a2.37,2.37,0,0,0,1.8.68,6.64,6.64,0,0,0,1.43-.14A7.53,7.53,0,0,0,61,32v1.49a5.65,5.65,0,0,1-1.36.45A8.31,8.31,0,0,1,58.12,34.09Zm-0.34-7.56a1.84,1.84,0,0,0-1.4.55,2.64,2.64,0,0,0-.63,1.62h3.92a2.39,2.39,0,0,0-.52-1.62A1.76,1.76,0,0,0,57.78,26.53Z" transform="translate(-3.56 -10.83)"/><path class="a" d="M68.49,33.94l-0.37-1.2H68.06a3.54,3.54,0,0,1-1.26,1.07,4,4,0,0,1-1.62.29,2.75,2.75,0,0,1-2-.69,2.57,2.57,0,0,1-.71-1.95,2.28,2.28,0,0,1,1-2,5.72,5.72,0,0,1,3-.74l1.49,0V28.19A1.75,1.75,0,0,0,67.59,27a1.58,1.58,0,0,0-1.2-.41,4.16,4.16,0,0,0-1.27.2A9.61,9.61,0,0,0,64,27.2l-0.59-1.31a6.41,6.41,0,0,1,1.54-.56,7.09,7.09,0,0,1,1.58-.19,3.74,3.74,0,0,1,2.49.72,2.82,2.82,0,0,1,.84,2.26v5.82H68.49Zm-2.73-1.25a2.28,2.28,0,0,0,1.61-.56A2,2,0,0,0,68,30.56V29.81l-1.11,0a3.79,3.79,0,0,0-1.89.43,1.32,1.32,0,0,0-.59,1.18,1.15,1.15,0,0,0,.34.89A1.48,1.48,0,0,0,65.75,32.69Z" transform="translate(-3.56 -10.83)"/><path class="a" d="M73.72,33.94H71.88V21.78h1.84V33.94Z" transform="translate(-3.56 -10.83)"/><path class="a" d="M79.08,32.61a4.47,4.47,0,0,0,1.34-.21v1.38a3.67,3.67,0,0,1-.79.22,5.44,5.44,0,0,1-1,.09Q76,34.09,76,31.34V26.69H74.86V25.87l1.27-.67,0.63-1.83h1.13V25.3h2.46v1.39H77.88v4.63a1.3,1.3,0,0,0,.33,1A1.21,1.21,0,0,0,79.08,32.61Z" transform="translate(-3.56 -10.83)"/><path class="a" d="M89.28,33.94H87.43V28.62a2.32,2.32,0,0,0-.4-1.49,1.55,1.55,0,0,0-1.28-.49,2,2,0,0,0-1.7.69,3.81,3.81,0,0,0-.54,2.32v4.29H81.67V21.78h1.84v3.09a14.41,14.41,0,0,1-.09,1.59h0.12a2.55,2.55,0,0,1,1-1,3.36,3.36,0,0,1,1.56-.34q3.14,0,3.14,3.16v5.63Z" transform="translate(-3.56 -10.83)"/><path class="a" d="M100.43,33.94l-0.37-1.2H100a3.54,3.54,0,0,1-1.26,1.07,4,4,0,0,1-1.62.29,2.75,2.75,0,0,1-2-.69,2.57,2.57,0,0,1-.71-1.95,2.28,2.28,0,0,1,1-2,5.72,5.72,0,0,1,3-.74l1.49,0V28.19A1.75,1.75,0,0,0,99.54,27a1.58,1.58,0,0,0-1.2-.41,4.16,4.16,0,0,0-1.27.2,9.61,9.61,0,0,0-1.17.46L95.3,25.89a6.41,6.41,0,0,1,1.54-.56,7.09,7.09,0,0,1,1.58-.19,3.74,3.74,0,0,1,2.49.72,2.82,2.82,0,0,1,.84,2.26v5.82h-1.31ZM97.7,32.69a2.27,2.27,0,0,0,1.61-.56,2,2,0,0,0,.61-1.57V29.81l-1.11,0a3.8,3.8,0,0,0-1.89.43,1.32,1.32,0,0,0-.59,1.18,1.15,1.15,0,0,0,.34.89A1.48,1.48,0,0,0,97.7,32.69Z" transform="translate(-3.56 -10.83)"/><path class="a" d="M107,32.61a4.46,4.46,0,0,0,1.34-.21v1.38a3.67,3.67,0,0,1-.79.22,5.44,5.44,0,0,1-1,.09q-2.61,0-2.61-2.75V26.69h-1.18V25.87l1.27-.67,0.63-1.83h1.13V25.3h2.46v1.39h-2.46v4.63a1.3,1.3,0,0,0,.33,1A1.21,1.21,0,0,0,107,32.61Z" transform="translate(-3.56 -10.83)"/><path class="a" d="M122.52,33.94h-1.87V28.79h-5.27v5.15h-1.87V22.51h1.87v4.67h5.27V22.51h1.88V33.94Z" transform="translate(-3.56 -10.83)"/><path class="a" d="M132.51,29.6a4.72,4.72,0,0,1-1.09,3.3,3.89,3.89,0,0,1-3,1.19,4.15,4.15,0,0,1-2.14-.55A3.6,3.6,0,0,1,124.83,32a5.35,5.35,0,0,1-.5-2.37,4.68,4.68,0,0,1,1.08-3.28,3.91,3.91,0,0,1,3-1.18,3.81,3.81,0,0,1,3,1.21A4.66,4.66,0,0,1,132.51,29.6Zm-6.29,0q0,3,2.21,3t2.19-3q0-3-2.2-3a1.88,1.88,0,0,0-1.68.77A3.89,3.89,0,0,0,126.22,29.6Z" transform="translate(-3.56 -10.83)"/><path class="a" d="M141.42,33.94h-1.84V28.61a2.42,2.42,0,0,0-.37-1.48,1.38,1.38,0,0,0-1.17-.49,1.79,1.79,0,0,0-1.56.69,4.05,4.05,0,0,0-.5,2.3v4.3h-1.84V25.3h1.44l0.26,1.13h0.09a2.4,2.4,0,0,1,1-1,3.37,3.37,0,0,1,1.5-.34,2.63,2.63,0,0,1,2.64,1.36h0.13a2.64,2.64,0,0,1,1.08-1,3.43,3.43,0,0,1,1.59-.36,2.9,2.9,0,0,1,2.25.78,3.46,3.46,0,0,1,.71,2.38v5.63H145V28.61a2.4,2.4,0,0,0-.38-1.48,1.4,1.4,0,0,0-1.18-.49,1.82,1.82,0,0,0-1.57.67,3.44,3.44,0,0,0-.5,2.05v4.58Z" transform="translate(-3.56 -10.83)"/><path class="a" d="M152.73,34.09a4.18,4.18,0,0,1-3.15-1.18,4.46,4.46,0,0,1-1.14-3.24,4.9,4.9,0,0,1,1.05-3.33,3.64,3.64,0,0,1,2.9-1.21,3.56,3.56,0,0,1,2.7,1,4,4,0,0,1,1,2.86v1h-5.76A2.84,2.84,0,0,0,151,32a2.37,2.37,0,0,0,1.8.68,6.64,6.64,0,0,0,1.43-.14,7.5,7.5,0,0,0,1.42-.48v1.49a5.65,5.65,0,0,1-1.36.45A8.3,8.3,0,0,1,152.73,34.09Zm-0.34-7.56a1.84,1.84,0,0,0-1.4.55,2.64,2.64,0,0,0-.63,1.62h3.92a2.39,2.39,0,0,0-.52-1.62A1.76,1.76,0,0,0,152.4,26.53Z" transform="translate(-3.56 -10.83)"/></svg>