<svg xmlns="http://www.w3.org/2000/svg" width="512" height="512" viewBox="0 0 512 512"><defs><style>.a{fill:#fff;}</style></defs><title>facebook</title><path class="a" d="M256,0C114.61,0,0,114.61,0,256S114.61,512,256,512,512,397.39,512,256,397.39,0,256,0Zm0,472C136.7,472,40,375.3,40,256S136.7,40,256,40s216,96.7,216,216S375.3,472,256,472Z"/><path class="a" d="M316.75,216.81H272.22v-32.5c0-10,10.31-12.28,15.13-12.28h28.77V128.17l-33-.17c-45,0-55.25,32.7-55.25,53.67v35.14H195.25V262h32.64V384h44.33V262h37.66Z"/></svg>