<svg xmlns="http://www.w3.org/2000/svg" width="150" height="150" viewBox="0 0 150 150"><defs><style>.a{fill:#73d8ff;}.b{fill:#f2dbc4;}.b,.c,.d,.e,.f,.g,.h{fill-rule:evenodd;}.c{fill:#008ccf;}.d,.j{fill:#d9af84;}.f{fill:#235996;}.g{fill:#282522;}.h{fill:#fbf1d3;}.i{fill:#fff;}</style></defs><title>feature01</title><rect class="a" width="150" height="150"/><path class="b" d="M95.28,121.94a12.77,12.77,0,0,1-5.61-4c-3.06-4.09-3.18-10.5-2.71-20.5l-24.15-.31c2.41,9.22,2.09,18.95-1.31,23.31-0.87,1.11-4.51,2-8.32,2.7-5.21,1-11.75,1.75-14.56,2.33-7.94,1.65-8.94,12-8.52,16.17,0.52,5.16,5,4.64,6.66,8.36h76.17l0.14-1.09,12-8.38C124.89,121,105.4,126,95.28,121.94Z"/><path class="c" d="M117.66,125.2c-5.56-2.74-13.08-1.84-19.31-2.5-2.7-.71-5.9-2.14-7.62-4.37,0.4,6.36-7.24,9.36-14.9,9.27-7.22-.08-14.44-2.93-15.44-7.82-4.15,3.89-11.9,4.06-17.13,4.55-6.91.12-10.28,2-12.89,8.36-1.53,3.75-2,10.51-1.92,17.3h97.43c0-7.14-.52-13.45-1.42-16.89C123.63,129.95,120.53,126.61,117.66,125.2Z"/><path class="d" d="M62.82,97.12c2.28,9.9,2.65,17.83-2.28,23.52,13.22-1.49,21.64-5.69,26.08-16.86,0-2.68.17-2.77,0.34-6.34Z"/><path class="b" d="M97.72,76c1-6.64,1.82-13.55.72-19.82C96.32,44,88.3,34.75,75.34,34.8,61,34.84,54,40.54,51.88,54.26a57.1,57.1,0,0,0,.7,22.32c1.82,9.07,3.92,31.1,22.59,31.1S96.27,85.73,97.72,76Z"/><path class="e" d="M71.58,63.7L70.76,50.93,69.93,63.7l-3.61.1L66,51.34,64.57,63.6H54.48c-0.5,11.79-1,23.08,4.12,41.31-16.36-10.35-19.54-18-18-40.39C42.55,37.24,71,16.59,89.3,33c16.14,4.81,19.19,13.64,20.2,29.78,1.43,22.8-2.36,32.09-17.32,41.51,4.52-14.52,3.63-25.82,4.33-41.1C88.2,63.79,79.68,63.68,71.58,63.7Z"/><path class="f" d="M62.37,117.8c-3.23,1.53-4.94,3.23-5.47,5.17-2,7.41,9.54,14.43,16.55,15l2.24-10.34C69.79,127.15,58.93,124.52,62.37,117.8Z"/><path class="f" d="M89.48,117.66c3.23,1.53,4.91,3.37,5.44,5.3,2,7.41-9.54,14.43-16.55,15l-2.27-10.3C82,127.18,92.93,124.38,89.48,117.66Z"/><path class="g" d="M65.74,72.85A2.15,2.15,0,1,0,67.89,75a2.15,2.15,0,0,0-2.15-2.15h0Z"/><path class="h" d="M64.72,73.91a0.47,0.47,0,1,0,.47.47,0.47,0.47,0,0,0-.47-0.47h0Z"/><path class="g" d="M85.62,72.85A2.15,2.15,0,1,0,87.77,75a2.15,2.15,0,0,0-2.15-2.15h0Z"/><path class="h" d="M84.6,73.91a0.47,0.47,0,1,0,.47.47,0.47,0.47,0,0,0-.47-0.47h0Z"/><path class="i" d="M65.79,92.2l18.42,0.73s-1.93,8-11,6.8C66.94,98.92,65.79,92.2,65.79,92.2Z"/><path class="j" d="M75.15,87.48c-0.05.16-1.56-1.1-1.52-3.29s1.07-3.52,1.22-3.41-0.46,1.56-.52,3.42S75.34,87.32,75.15,87.48Z"/><path d="M60.77,69.72c0.41,0.33,1.66-1.61,3.77-1.85s3.9,1.4,4.14,1c0.29-.13-1.06-2.46-4.25-2.44C61.2,67,60.53,69.75,60.77,69.72Z"/><path d="M82.26,69.31c0.34,0.39,1.86-1.37,4-1.32s3.67,1.93,4,1.61c0.29-.07-0.71-2.6-3.86-3C83.06,66.67,82,69.31,82.26,69.31Z"/></svg>