<svg xmlns="http://www.w3.org/2000/svg" width="150" height="150" viewBox="0 0 150 150"><defs><style>.a{fill:#addb69;}.b{fill:#272528;}.c{fill:#fff;}.d{fill:#e1e1e2;}.e{opacity:0.3;}.f{fill:#ff642f;}.g{fill:#006838;}.h{fill:#39b54a;}</style></defs><title>feature02</title><rect class="a" width="150" height="150"/><rect class="b" x="41.25" y="34.73" width="67.98" height="88.89"/><rect class="c" x="43.87" y="37.34" width="62.75" height="83.66"/><rect class="d" x="59.56" y="32.11" width="31.37" height="7.84"/><g class="e"><rect class="b" x="59.56" y="39.63" width="31.37" height="1.96"/></g><path class="d" d="M75.24,26.8A5.23,5.23,0,1,0,80.47,32,5.23,5.23,0,0,0,75.24,26.8Zm0,6.54A1.31,1.31,0,1,1,76.55,32,1.31,1.31,0,0,1,75.24,33.34Z"/><circle class="f" cx="55.63" cy="55.86" r="6.54"/><polygon class="c" points="59.56 54.56 56.94 54.56 56.94 51.94 54.33 51.94 54.33 54.56 51.71 54.56 51.71 57.17 54.33 57.17 54.33 59.78 56.94 59.78 56.94 57.17 59.56 57.17 59.56 54.56"/><rect class="b" x="67.4" y="49" width="33.99" height="0.65"/><rect class="b" x="67.4" y="52.7" width="33.99" height="0.65"/><rect class="b" x="67.4" y="55.32" width="33.99" height="0.65"/><rect class="b" x="67.4" y="57.93" width="33.99" height="0.65"/><rect class="b" x="67.4" y="62.07" width="23.53" height="0.65"/><path class="g" d="M57.64,80.1a2.22,2.22,0,0,0-1.93,1,4.91,4.91,0,0,0-.69,2.8q0,3.71,2.82,3.71a5.78,5.78,0,0,0,1.65-.24,16.53,16.53,0,0,0,1.61-.57v2.94a8.9,8.9,0,0,1-3.64.71A5.76,5.76,0,0,1,53,88.78a7,7,0,0,1-1.55-4.88,7.77,7.77,0,0,1,.75-3.51,5.36,5.36,0,0,1,2.16-2.32,6.53,6.53,0,0,1,3.32-.81,9.14,9.14,0,0,1,4,.91l-1.06,2.73a12,12,0,0,0-1.42-.56A5,5,0,0,0,57.64,80.1Z"/><path class="g" d="M71.48,90.29l-0.63-2.41H66.68L66,90.29H62.21l4.19-12.9H71l4.25,12.9h-3.8ZM70.13,85l-0.55-2.11q-0.19-.7-0.47-1.82t-0.36-1.6Q68.66,80,68.43,81T67.4,85h2.73Z"/><path class="g" d="M80.14,85.61v4.68H76.67V77.44h4.21q5.24,0,5.24,3.8a3.79,3.79,0,0,1-2.18,3.45l3.74,5.6H83.74L81,85.61H80.14Zm0-2.61h0.65q1.82,0,1.82-1.61,0-1.33-1.78-1.33H80.14V83Z"/><path class="g" d="M96.48,90.29H88.85V77.44h7.63v2.79H92.32v2h3.85V85H92.32v2.43h4.16v2.83Z"/><path class="h" d="M60.8,97.21a4,4,0,0,1-1.17,3.07,4.72,4.72,0,0,1-3.33,1.08H55.4v3.93H52.2V93.44h4.1a5,5,0,0,1,3.37,1A3.49,3.49,0,0,1,60.8,97.21Zm-5.4,1.54H56a1.59,1.59,0,0,0,1.15-.41,1.47,1.47,0,0,0,.43-1.12A1.12,1.12,0,0,0,56.23,96H55.4v2.72Z"/><path class="h" d="M62.69,105.29V93.44h3.2v9.26h4.56v2.58H62.69Z"/><path class="h" d="M79.61,105.29L79,103.07H75.18l-0.6,2.22H71.06l3.86-11.89H79.2l3.91,11.89h-3.5Zm-1.25-4.84L77.85,98.5q-0.18-.65-0.43-1.68t-0.34-1.47q-0.07.41-.29,1.36t-1,3.74h2.52Z"/><path class="h" d="M95.67,105.29h-4.2l-4.33-8.34H87.07q0.15,2,.15,3v5.34H84.39V93.44h4.18l4.31,8.23h0q-0.11-1.79-.11-2.88V93.44h2.85v11.84Z"/></svg>