<svg xmlns="http://www.w3.org/2000/svg" width="150" height="150" viewBox="0 0 150 150"><defs><style>.a{isolation:isolate;}.b{fill:#3fb3ae;}.c{fill:#dfbea3;}.d{fill:#fff;}.e{fill:#c5e3d0;}.f{fill:#44b5ad;}.g{opacity:0.48;mix-blend-mode:multiply;}.h{fill:#176177;}</style></defs><title>feature03</title><g class="a"><rect class="b" width="150" height="150"/><path class="c" d="M57.37,62.43a5.18,5.18,0,0,1-6.27,3.78l-8.09-2A5.18,5.18,0,0,1,39.23,58h0a5.18,5.18,0,0,1,6.27-3.78l8.09,2a5.18,5.18,0,0,1,3.78,6.27h0Z"/><path class="d" d="M85.38,26.67H56.52a6.32,6.32,0,0,0-6.13,6.49v67.71a6.32,6.32,0,0,0,6.13,6.48H85.38a6.32,6.32,0,0,0,6.13-6.48V33.16A6.32,6.32,0,0,0,85.38,26.67ZM88.69,97H53.22V37.06H88.69V97Z"/><rect class="e" x="53.22" y="37.06" width="35.47" height="59.91"/><path class="f" d="M78.18,31.92a0.76,0.76,0,0,1-.76.76H64.48a0.76,0.76,0,0,1-.76-0.76h0a0.76,0.76,0,0,1,.76-0.76H77.42a0.76,0.76,0,0,1,.76.76h0Z"/><path class="c" d="M50.57,90.83l-0.06,0-0.12-.23v0.29h0a5,5,0,0,1-2.15.5,3.86,3.86,0,0,1-3.51-2l-0.17-.32L42,84.22a3.5,3.5,0,0,1-.37-2c0-.06,0-0.13,0-0.19l0-.18a0.15,0.15,0,0,1,0-.05h0c0-.09,0-0.18.07-0.26h0l0.05-.18,0.06-.17a4.47,4.47,0,0,1,.42-0.81,5,5,0,0,1,1.92-1.74,5.11,5.11,0,0,1,2.21-.59h0l0.3,0h0.16a3.79,3.79,0,0,1,3.16,2l0.32,0.62,2.4,4.61C53.79,87.17,52.8,89.67,50.57,90.83Z"/><path class="c" d="M50.39,99.17h0l-0.07,0a4.74,4.74,0,0,1-2.17.54,3.23,3.23,0,0,1-3-1.61l-2.31-4.42a3,3,0,0,1-.15-2.3l0-.14A2.37,2.37,0,0,1,42.89,91L43,90.83l0.11-.19a4.49,4.49,0,0,1,1.47-1.49h0l0.17,0.32a3.85,3.85,0,0,0,3.51,2,5,5,0,0,0,2.16-.5v0h0V90.63l0.12,0.23,1.85,3.54C53.19,96,52.31,98.12,50.39,99.17Z"/><path class="c" d="M118.54,112.89L81.68,133.51c-0.09-.14-0.18-0.29-0.26-0.45s-0.12-.2-0.19-0.3c-1-1.6-1.9-3.07-3.22-5-0.4-.58-0.82-1.17-1.29-1.83a77.51,77.51,0,0,1-10.56-8,45,45,0,0,1-8.32-10.54H85.38a6.32,6.32,0,0,0,6.13-6.49V74.16a15.7,15.7,0,0,1,2.31,2.11,20.37,20.37,0,0,1-.16-3c0-1-.26-1.85-0.38-2.83-0.17-1.19.22-2.28-.39-3.36a17.65,17.65,0,0,1-1.35-2.77v0.18c-1.67-3.33-1.57-14.72,0-16.66l0-.07a2.64,2.64,0,0,1,1.84-1.19,3.28,3.28,0,0,1,2.14.3h0c1.52,0.79,2.26,2.85,2.78,5.05,0.6,2.52.93,5.24,1.81,6.61,1.86,2.72,4,4.78,4.79,8a39.74,39.74,0,0,0,2.49,7.73c0.66,1.84.88,3.58,1.85,5.22,0.88,1.41.93,3.21,1.14,4.84,0.33,2.83.6,6.42,0.6,8.1a24.1,24.1,0,0,0,.78,5.91c0.08,0.42.16,0.83,0.26,1.24v0C113.19,104.41,115.84,108.88,118.54,112.89Z"/><path class="c" d="M52.28,72.6a3.83,3.83,0,0,1-2.13,5l-0.28.13A3.83,3.83,0,0,1,44.74,76l-2.23-5a3.83,3.83,0,0,1,2.13-5l0.28-.13a3.83,3.83,0,0,1,5.13,1.71Z"/><g class="g"><path class="h" d="M69.29,87.24a1.17,1.17,0,0,1,1.16-1.17L82.38,86a1.16,1.16,0,0,1,1.17,1.15h0a1.16,1.16,0,0,1-1.15,1.17l-11.94.1a1.17,1.17,0,0,1-1.17-1.15h0Z"/></g><g class="g"><path class="h" d="M66,83.64a1.16,1.16,0,0,1,1.15-1.17l15.17-.13a1.16,1.16,0,0,1,1.17,1.15h0a1.16,1.16,0,0,1-1.16,1.17l-15.17.13A1.16,1.16,0,0,1,66,83.64h0Z"/></g><g class="g"><path class="h" d="M70.88,80.12A1.12,1.12,0,0,1,72,79l10.36-.09A1.12,1.12,0,0,1,83.49,80h0a1.12,1.12,0,0,1-1.11,1.13L72,81.23a1.12,1.12,0,0,1-1.13-1.12h0Z"/></g><path class="h" d="M66.24,55.78a0.81,0.81,0,0,1-.07.35,0.78,0.78,0,0,1-.17.24,0.75,0.75,0,0,1-.21.14,0.49,0.49,0,0,1-.2,0l-4.15,0a0.83,0.83,0,0,1-.23,0A0.61,0.61,0,0,1,61,56.44a0.73,0.73,0,0,1-.16-0.23,0.93,0.93,0,0,1-.06-0.36,0.88,0.88,0,0,1,.06-0.34A0.85,0.85,0,0,1,61,55.26a0.57,0.57,0,0,1,.21-0.14,0.65,0.65,0,0,1,.23,0h1.33l0-6.25a1.49,1.49,0,0,1-.32-0.05,0.83,0.83,0,0,1-.27-0.12,0.62,0.62,0,0,1-.19-0.22,0.71,0.71,0,0,1-.07-0.33A0.88,0.88,0,0,1,62,47.62a0.63,0.63,0,0,1,.31-0.25,1.53,1.53,0,0,1,.48-0.1l0.62,0h0.33a0.44,0.44,0,0,1,.36.12,0.5,0.5,0,0,1,.1.32l0.06,7.37h1.36a0.19,0.19,0,0,1,.16.12,1,1,0,0,1,.08.24,1.41,1.41,0,0,1,0,.24c0,0.07,0,.11,0,0.12h0.35Z"/><path class="h" d="M70.91,47.09a5.69,5.69,0,0,1,1.39.13,2.11,2.11,0,0,1,.92.46,1.79,1.79,0,0,1,.51.82,4.26,4.26,0,0,1,.18,1.24v0a5.87,5.87,0,0,1-.11,1.33,1.92,1.92,0,0,1-.4.87,1.63,1.63,0,0,1-.75.49,3.75,3.75,0,0,1-1.13.16c-0.39,0-.71,0-1,0a1.36,1.36,0,0,0-.61.17,0.73,0.73,0,0,0-.31.44,3.35,3.35,0,0,0-.08.87V55l3.62,0a1,1,0,0,1,.26,0,0.77,0.77,0,0,1,.24.13,0.67,0.67,0,0,1,.18.23,0.9,0.9,0,0,1,.09.34,0.85,0.85,0,0,1-.06.36,0.64,0.64,0,0,1-.17.24,0.84,0.84,0,0,1-.25.14,0.91,0.91,0,0,1-.28,0l-4.25,0a0.81,0.81,0,0,1-.64-0.2,0.9,0.9,0,0,1-.18-0.6l0-1.89a4.49,4.49,0,0,1,.14-1.28,2,2,0,0,1,.44-0.82,1.74,1.74,0,0,1,.73-0.46,3.41,3.41,0,0,1,1-.15l1.06,0A1.65,1.65,0,0,0,71.93,51a0.68,0.68,0,0,0,.31-0.2,0.8,0.8,0,0,0,.17-0.36,2.46,2.46,0,0,0,0-.56v0a2.35,2.35,0,0,0-.07-0.61,0.72,0.72,0,0,0-.24-0.39,1.1,1.1,0,0,0-.48-0.21,3.92,3.92,0,0,0-.8-0.06,5,5,0,0,0-.7,0,2.16,2.16,0,0,0-.52.14,1.94,1.94,0,0,0-.36.18,0.71,0.71,0,0,1-.39.1h0a0.56,0.56,0,0,1-.43-0.23,0.92,0.92,0,0,1-.17-0.57v0a0.76,0.76,0,0,1,.22-0.54,1.64,1.64,0,0,1,.58-0.35,3.72,3.72,0,0,1,.84-0.2A8.72,8.72,0,0,1,70.91,47.09Z"/><path class="h" d="M82,53.93h0a3.22,3.22,0,0,1-.2,1.23,1.92,1.92,0,0,1-.57.8,2.25,2.25,0,0,1-.9.44,4.81,4.81,0,0,1-1.15.14A4.28,4.28,0,0,1,78,56.39,2.35,2.35,0,0,1,77.14,56a1.88,1.88,0,0,1-.56-0.78,3.07,3.07,0,0,1-.2-1.14l0-4.54a2.25,2.25,0,0,1,.73-1.85A3.19,3.19,0,0,1,79.16,47a3.86,3.86,0,0,1,1.14.14,2.41,2.41,0,0,1,.88.46,2.06,2.06,0,0,1,.57.78A2.8,2.8,0,0,1,82,49.5Zm-1.5-4.35a1,1,0,0,0-.34-0.78,1.55,1.55,0,0,0-1-.28,1.53,1.53,0,0,0-1,.29,0.91,0.91,0,0,0-.32.72l0,4.46a0.89,0.89,0,0,0,.33.78,1.76,1.76,0,0,0,1,.22,1.8,1.8,0,0,0,1-.25A0.86,0.86,0,0,0,80.52,54Z"/><path class="h" d="M73.91,64.73a5.09,5.09,0,0,1-.09,1.08,1.66,1.66,0,0,1-.41.81,2,2,0,0,1-.88.52,5.23,5.23,0,0,1-1.5.19,4.37,4.37,0,0,1-1.44-.18,2,2,0,0,1-.85-0.53,1.75,1.75,0,0,1-.41-0.81,5,5,0,0,1-.11-1c0-.33,0-0.59,0-0.79a1.34,1.34,0,0,1,.12-0.51,1.16,1.16,0,0,1,.32-0.4,5.61,5.61,0,0,1,.64-0.44,4.32,4.32,0,0,1-.63-0.32A0.85,0.85,0,0,1,68.36,62a1.6,1.6,0,0,1-.12-0.56c0-.23,0-0.54,0-0.93a4.54,4.54,0,0,1,.14-1.25,1.7,1.7,0,0,1,.47-0.8A1.92,1.92,0,0,1,69.68,58a6.69,6.69,0,0,1,2.64,0,2,2,0,0,1,.88.43,1.71,1.71,0,0,1,.49.79,4,4,0,0,1,.17,1.21c0,0.39,0,.7,0,0.94a1.61,1.61,0,0,1-.12.57,0.87,0.87,0,0,1-.3.37,4.28,4.28,0,0,1-.59.33,4.54,4.54,0,0,1,.6.36,1,1,0,0,1,.32.38,1.46,1.46,0,0,1,.12.54C73.9,64.08,73.91,64.37,73.91,64.73Zm-1.45-.15,0-.12a1.1,1.1,0,0,0-.18-0.33,2.67,2.67,0,0,0-.42-0.43,2.82,2.82,0,0,0-.76-0.43,2.92,2.92,0,0,0-.75.47,2.42,2.42,0,0,0-.41.45,1.15,1.15,0,0,0-.17.36,1.38,1.38,0,0,0,0,.19h0a1.8,1.8,0,0,0,.06.49,0.57,0.57,0,0,0,.22.31,1,1,0,0,0,.44.16,4.06,4.06,0,0,0,.72,0,3.06,3.06,0,0,0,.63-0.06,1,1,0,0,0,.41-0.17,0.62,0.62,0,0,0,.22-0.31,1.47,1.47,0,0,0,.06-0.46V64.58Zm-1.4-2.73c0.33-.1.59-0.18,0.77-0.25a1,1,0,0,0,.39-0.26,0.67,0.67,0,0,0,.15-0.4c0-.17,0-0.4,0-0.7a1.1,1.1,0,0,0-.1-0.49A0.64,0.64,0,0,0,72,59.47a1.15,1.15,0,0,0-.43-0.11c-0.17,0-.36,0-0.57,0a5.13,5.13,0,0,0-.61,0,0.88,0.88,0,0,0-.42.15,0.67,0.67,0,0,0-.24.34,2,2,0,0,0-.07.61,5.57,5.57,0,0,0,0,.56,0.56,0.56,0,0,0,.15.34,1.07,1.07,0,0,0,.41.23Z"/><path class="h" d="M82.08,64.67h0a3.25,3.25,0,0,1-.19,1.23,2,2,0,0,1-.57.8,2.24,2.24,0,0,1-.89.43,4.68,4.68,0,0,1-1.16.14,4.31,4.31,0,0,1-1.17-.14,2.31,2.31,0,0,1-.88-0.44,1.89,1.89,0,0,1-.56-0.77,3.12,3.12,0,0,1-.2-1.14l0-4.54a2.26,2.26,0,0,1,.73-1.84,3.19,3.19,0,0,1,2.09-.63,4.06,4.06,0,0,1,1.14.14,2.43,2.43,0,0,1,.88.46,2,2,0,0,1,.57.78A2.81,2.81,0,0,1,82,60.24Zm-1.5-4.35a1,1,0,0,0-.34-0.78,1.54,1.54,0,0,0-1-.27,1.51,1.51,0,0,0-1,.29,0.91,0.91,0,0,0-.32.72l0,4.46a0.88,0.88,0,0,0,.33.78,1.74,1.74,0,0,0,1,.22,1.81,1.81,0,0,0,1-.25,0.87,0.87,0,0,0,.35-0.79Z"/></g></svg>