<svg xmlns="http://www.w3.org/2000/svg" width="500" height="250" viewBox="0 0 500 250"><defs><style>.a,.r{fill:none;}.a{stroke:#27aae1;stroke-miterlimit:10;stroke-width:3px;}.b{fill:#206cbe;}.c{fill:#414042;}.d{fill:#4c3223;}.e{fill:#fbd5a2;}.f{fill:#301210;}.g{fill:#00aeef;}.h,.p{fill:#231f20;}.i{fill:#4c3b26;}.j{fill:#813528;}.k{fill:#778f94;}.l{fill:#807669;}.m{fill:#9b8e81;}.n{fill:#2b3c5f;}.o{fill:#27aae1;}.p{opacity:0.1;}.q{fill:#fff;}</style></defs><title>joinus</title><rect class="a" x="98.42" y="28.67" width="301.2" height="49.7" rx="24.85" ry="24.85"/><path class="b" d="M95.74,168.31a1.7,1.7,0,0,1-3.39.07c0-.5,0-1.1-0.06-1.78v0a80.14,80.14,0,0,0-1.8-13.94c-2.08-9.14-4-21.83-4-22l3.41-.12c0,0.13,1.85,12.3,3.91,21.32a82.94,82.94,0,0,1,1.89,14.72h0C95.71,167.25,95.73,167.83,95.74,168.31Z"/><path class="b" d="M71,131.15c0,0.12-1.93,12.81-4,21.95a79.49,79.49,0,0,0-1.77,13.49c0,0.15,0,.3,0,0.45,0,0.69,0,1.31-.06,1.81a1.7,1.7,0,0,1-3.39-.06c0-.49,0-1.06.05-1.71,0-.16,0-0.31,0-0.48a82.41,82.41,0,0,1,1.87-14.25c2.05-9,3.89-21.19,3.91-21.31Z"/><path class="c" d="M88.05,176.83c-0.59,5.06-1.78,10.51-2.77,16.14-0.9,5.09,0,9-.17,13.32-0.42,9.86-1.54,17.92-1.54,17.92h-3a131.85,131.85,0,0,0,0-15.88c-0.3-5.67-.5-21.52-0.6-31.5-0.05-5-.08-8.54-0.08-8.54h8.46A42.55,42.55,0,0,1,88.05,176.83Z"/><path class="c" d="M78.34,168.29s0,3.53-.08,8.54c-0.1,10-.3,25.83-0.6,31.5a132.91,132.91,0,0,0,0,15.88h-3s-1.12-8.06-1.54-17.92c-0.19-4.35.72-8.24-.17-13.32-1-5.63-2.18-11.08-2.77-16.14a43.17,43.17,0,0,1-.26-8.54h8.46Z"/><rect class="c" x="72.37" y="168.29" width="12.13" height="7.21"/><path class="d" d="M77.3,104.64s-9,.8-8,10.48c-1.88,10.57,7.53,12.75,7.53,12.75l6.43-.63s2.17-10.17,2.07-10.25S77.3,104.64,77.3,104.64Z"/><path class="e" d="M78.11,124.25h0.7a5,5,0,0,0,5-5V111c0-2.77-3.9-5-5-5h-0.7a5,5,0,0,0-5,5v8.18A5,5,0,0,0,78.11,124.25Z"/><path class="d" d="M75.13,109.93s7.72,0.21,8,7.89c0.19,6.07,0,8.77,0,8.77l-2-.11s7.39,1.87,8.4-4.57c0.9-5.73-3.07-6.24-2.15-11.08S75.13,98.61,75.13,109.93Z"/><path class="b" d="M88.31,168.29H69.9c0.77-7.79,3.52-8.9,3.5-16.22,0-3.67-1.48-8.81-2.94-13s-2.9-7.45-2.9-7.45a6.24,6.24,0,0,1,3.34-5.53,6.17,6.17,0,0,1,2.91-.72h9.93A6.25,6.25,0,0,1,90,131.6s-1.19,3.29-2.42,7.47-2.5,9.31-2.64,12.89C84.66,159.08,87.07,160.19,88.31,168.29Z"/><path class="e" d="M79,128h0a2.4,2.4,0,0,0,2.4-2.4v-3.92H76.61v3.92A2.4,2.4,0,0,0,79,128Z"/><path class="e" d="M76.11,125.35c-0.07,2,1.85,2.22,2.38,3.16a11.92,11.92,0,0,0,.46,3.06,7.78,7.78,0,0,0,.4-3.06s2.45-1,2.37-3.16H76.11Z"/><path class="f" d="M78.95,226.93H73.11V225.3A2.92,2.92,0,0,1,76,222.38h0a2.92,2.92,0,0,1,2.92,2.92v1.64Z"/><path class="f" d="M85.26,226.93H79.43V225.3a2.92,2.92,0,0,1,2.92-2.92h0a2.92,2.92,0,0,1,2.92,2.92v1.64Z"/><path class="e" d="M95.74,168.31a1.7,1.7,0,0,1-3.39.07c0-.5,0-1.1-0.06-1.78h3.4C95.71,167.25,95.73,167.83,95.74,168.31Z"/><path class="e" d="M65.21,166.59c0,0.15,0,.3,0,0.45,0,0.69,0,1.31-.06,1.81a1.7,1.7,0,0,1-3.39-.06c0-.49,0-1.06.05-1.71,0-.16,0-0.31,0-0.48h3.4Z"/><polygon class="g" points="81.75 125.34 79.35 128.5 84.12 130.31 81.75 125.34"/><polygon class="g" points="76.09 125.34 78.49 128.5 73.72 130.31 76.09 125.34"/><polygon class="c" points="78.47 168.67 79.42 165.81 80.6 168.48 78.47 168.67"/><ellipse class="e" cx="73.08" cy="115.34" rx="2.05" ry="2.08"/><ellipse class="e" cx="83.84" cy="115.34" rx="2.05" ry="2.08"/><path class="d" d="M85,109.22c0-2.52-2.7-4.58-5.18-4.58H77.3c-2.48,0-5.18,2.06-5.18,4.58,0,0,.49,7,1.29,7.78v-4.43a2.86,2.86,0,0,1,2.83-2.87h4.61a2.86,2.86,0,0,1,2.83,2.87V117C84.47,116.17,85,109.22,85,109.22Z"/><rect class="h" x="127.69" y="101.41" width="16.1" height="54" rx="7.82" ry="7.82" transform="translate(271.48 256.82) rotate(180)"/><path class="b" d="M119.18,169.36a1.67,1.67,0,0,0,3.33.06c0-.49,0-1.09.06-1.77A78.7,78.7,0,0,1,124.33,154c2-9,3.92-21.43,3.94-21.56l-3.35-.11c0,0.12-1.82,12.08-3.84,20.93a81.54,81.54,0,0,0-1.86,14.46C119.2,168.32,119.19,168.89,119.18,169.36Z"/><path class="b" d="M152.57,169.83a1.67,1.67,0,0,1-3.33.06c0-.49,0-1.09-0.06-1.77a78.7,78.7,0,0,0-1.76-13.69c-2-9-3.92-21.43-3.94-21.56l3.35-.11c0,0.12,1.82,12.08,3.84,20.93a81.54,81.54,0,0,1,1.86,14.46C152.54,168.79,152.56,169.35,152.57,169.83Z"/><path class="e" d="M131.13,224.25h3a129.88,129.88,0,0,1,0-15.59c0.44-8.37.67-39.32,0.67-39.32h-8.31c-0.61,7.09,1.42,15.44,3,24.24,0.88,5,0,8.81.17,13.08C130,216.34,131.13,224.25,131.13,224.25Z"/><path class="e" d="M139.91,224.25h-3a129.88,129.88,0,0,0,0-15.59c-0.44-8.37-.67-39.32-0.67-39.32h8.31c-0.21,8-1.42,15.44-3,24.24-0.88,5,0,8.81-.17,13.08C141,216.34,139.91,224.25,139.91,224.25Z"/><path class="b" d="M125.91,169.34h18.64c-1.31-11-3.45-10.77-3.44-16.74,0-7.2,5.74-19.29,5.74-19.29a6.14,6.14,0,0,0-6.14-6.14H131a6.14,6.14,0,0,0-6.14,6.14s5.11,11.78,5.37,18.78C130.42,157.87,126.74,159.37,125.91,169.34Z"/><path class="e" d="M135.84,129.77h0a2.35,2.35,0,0,0,2.35-2.35v-3.85h-4.71v3.85A2.35,2.35,0,0,0,135.84,129.77Z"/><ellipse class="e" cx="129.91" cy="115" rx="2.22" ry="2.26"/><path class="e" d="M135.74,124.65h0a5.85,5.85,0,0,0,5.83-5.83v-8.48c0-3-4.23-5.45-5.45-5.45h-0.38a5.85,5.85,0,0,0-5.83,5.83v8.1A5.85,5.85,0,0,0,135.74,124.65Z"/><ellipse class="e" cx="141.57" cy="115" rx="2.22" ry="2.26"/><path class="h" d="M142.78,108.37c0-1.23-1.21-5.94-5.5-5.7-6.56-3.29-8.41,4.05-8.41,5.7,0,0,.17,8,1,8.89l0.36-5.27a3.09,3.09,0,0,1,3.06-3.11h5a3.09,3.09,0,0,1,3.06,3.11l0.15,4.9C142.4,116,142.78,108.37,142.78,108.37Z"/><path class="e" d="M139.85,127.17a15,15,0,0,1-4,9.09,11.12,11.12,0,0,1-4-9.09h8Z"/><rect class="e" x="130.21" y="169.34" width="11.92" height="7.08" transform="translate(272.34 345.76) rotate(180)"/><path class="i" d="M135.67,226.93h5.73v-1.61a2.87,2.87,0,0,0-2.87-2.87h0a2.87,2.87,0,0,0-2.87,2.87v1.61Z"/><path class="i" d="M129.46,226.93h5.73v-1.61a2.87,2.87,0,0,0-2.87-2.87h0a2.87,2.87,0,0,0-2.87,2.87v1.61Z"/><path class="b" d="M122.33,187.07L147,185s-2.57-15.58-2.91-19.24l-17.45-.21C126.16,168.2,122.33,187.07,122.33,187.07Z"/><rect class="g" x="129.89" y="153.18" width="11.68" height="2.06" transform="translate(271.46 308.42) rotate(180)"/><path class="h" d="M140.42,108.73s-2.87-1.47-5.75,2.79-4.73,1.76-4.73,1.76v-6.43Z"/><path class="j" d="M191.62,103.36s-9-.29-8.69,11.36,8.16,13.82,8.16,13.82h8.84s0.48-11.71.37-11.79S191.62,103.36,191.62,103.36Z"/><path class="k" d="M188.26,224.25h3a129.94,129.94,0,0,1,0-15.6c0.44-8.37.67-39.34,0.67-39.34H183.6c-0.61,7.09,1.42,15.45,3,24.25,0.88,5,0,8.81.17,13.09C187.17,216.34,188.26,224.25,188.26,224.25Z"/><path class="k" d="M197.05,224.25h-3a129.94,129.94,0,0,0,0-15.6c-0.44-8.37-.67-39.34-0.67-39.34h8.31c0.61,7.09-1.42,15.45-3,24.25-0.88,5,0,8.81-.17,13.09C198.15,216.34,197.05,224.25,197.05,224.25Z"/><path class="b" d="M183.6,169.32h18.09c0.13-7.24-3.46-8.74-3.44-15.94S204,133.27,204,133.27a6.14,6.14,0,0,0-6.14-6.14H188.1a6.14,6.14,0,0,0-6.14,6.14s4.7,13,5,20S183.49,162,183.6,169.32Z"/><path class="e" d="M193,129.74h0a2.35,2.35,0,0,0,2.35-2.35v-3.85h-4.71v3.85A2.35,2.35,0,0,0,193,129.74Z"/><ellipse class="e" cx="187.04" cy="114.96" rx="2.22" ry="2.26"/><path class="e" d="M192.5,124.61h0.76a5.47,5.47,0,0,0,5.45-5.45v-8.86c0-3-4.23-5.45-5.45-5.45H192.5a5.47,5.47,0,0,0-5.45,5.45v8.86A5.47,5.47,0,0,0,192.5,124.61Z"/><ellipse class="e" cx="198.71" cy="114.96" rx="2.22" ry="2.26"/><path class="j" d="M199.93,108.32c0-2.73-2.93-5-5.61-5h-2.7c-2.69,0-5.61,2.23-5.61,5,0,0,.53,7.53,1.4,8.43v-4.8a3.09,3.09,0,0,1,3.06-3.11h5a3.09,3.09,0,0,1,3.06,3.11v4.8C199.39,115.85,199.93,108.32,199.93,108.32Z"/><path class="e" d="M197.89,127.13c-0.48,5.59-5.09,9.09-5.09,9.09s-5.45-3.19-5.09-9.09h10.17Z"/><rect class="k" x="187.35" y="169.32" width="11.92" height="7.08" transform="translate(386.62 345.72) rotate(180)"/><path class="i" d="M192.8,226.93h5.73v-1.61a2.87,2.87,0,0,0-2.87-2.87h0a2.87,2.87,0,0,0-2.87,2.87v1.61Z"/><path class="i" d="M186.6,226.93h5.73v-1.61a2.87,2.87,0,0,0-2.87-2.87h0a2.87,2.87,0,0,0-2.87,2.87v1.61Z"/><path class="b" d="M176.31,169.34a1.67,1.67,0,0,0,3.33.06c0-.49,0-1.09.06-1.77a78.73,78.73,0,0,1,1.76-13.7c2-9,3.92-21.44,3.94-21.57l-3.35-.11c0,0.12-1.82,12.08-3.84,20.94a81.57,81.57,0,0,0-1.86,14.46C176.33,168.3,176.32,168.87,176.31,169.34Z"/><path class="e" d="M176.31,169.34a1.67,1.67,0,0,0,3.33.06c0-.49,0-1.09.06-1.77l-3.34,0C176.33,168.3,176.32,168.87,176.31,169.34Z"/><path class="b" d="M209.71,169.81a1.67,1.67,0,0,1-3.33.06c0-.49,0-1.09-0.06-1.77a78.73,78.73,0,0,0-1.76-13.7c-2-9-3.92-21.44-3.94-21.57l3.35-.11c0,0.12,1.82,12.08,3.84,20.94a81.57,81.57,0,0,1,1.86,14.46C209.69,168.76,209.7,169.33,209.71,169.81Z"/><path class="e" d="M209.71,169.81a1.67,1.67,0,0,1-3.33.06c0-.49,0-1.09-0.06-1.77l3.34,0C209.69,168.76,209.7,169.33,209.71,169.81Z"/><path class="j" d="M189.26,109.09s8.37,0.23,8.63,8.55c0.2,6.57,0,9.5,0,9.5l-2.13-.12s3.62,1.07,3.87,4.67-0.36,4.54-.36,4.54,8.59-7.55,7.05-13.65-4.78-7.28-3.78-12.52S189.26,96.83,189.26,109.09Z"/><path class="b" d="M381.43,168.31a1.7,1.7,0,0,1-3.39.07c0-.5,0-1.1-0.06-1.78v0a80.14,80.14,0,0,0-1.8-13.94c-2.08-9.14-4-21.83-4-22l3.41-.12c0,0.13,1.85,12.3,3.91,21.32a82.94,82.94,0,0,1,1.89,14.72h0C381.4,167.25,381.42,167.83,381.43,168.31Z"/><path class="b" d="M356.68,131.15c0,0.12-1.93,12.81-4,21.95a79.49,79.49,0,0,0-1.77,13.49c0,0.15,0,.3,0,0.45,0,0.69,0,1.31-.06,1.81a1.7,1.7,0,0,1-3.39-.06c0-.49,0-1.06.05-1.71,0-.16,0-0.31,0-0.48a82.41,82.41,0,0,1,1.87-14.25c2.05-9,3.89-21.19,3.91-21.31Z"/><path class="c" d="M373.74,176.83C373.15,181.89,372,187.34,371,193c-0.9,5.09,0,9-.17,13.32-0.42,9.86-1.54,17.92-1.54,17.92h-3a131.85,131.85,0,0,0,0-15.88c-0.3-5.67-.5-21.52-0.6-31.5-0.05-5-.08-8.54-0.08-8.54H374A42.55,42.55,0,0,1,373.74,176.83Z"/><path class="c" d="M364,168.29s0,3.53-.08,8.54c-0.1,10-.3,25.83-0.6,31.5a132.91,132.91,0,0,0,0,15.88h-3s-1.12-8.06-1.54-17.92c-0.19-4.35.72-8.24-.17-13.32-1-5.63-2.18-11.08-2.77-16.14a43.17,43.17,0,0,1-.26-8.54H364Z"/><rect class="c" x="358.06" y="168.29" width="12.13" height="7.21"/><path class="b" d="M374,168.29H355.59c0.77-7.79,3.52-8.9,3.5-16.22,0-3.67-1.48-8.81-2.94-13s-2.9-7.45-2.9-7.45a6.24,6.24,0,0,1,3.34-5.53,6.17,6.17,0,0,1,2.91-.72h9.93a6.25,6.25,0,0,1,6.25,6.25s-1.19,3.29-2.42,7.47-2.5,9.31-2.64,12.89C370.35,159.08,372.76,160.19,374,168.29Z"/><path class="e" d="M364.69,128h0a2.4,2.4,0,0,0,2.4-2.4v-3.92H362.3v3.92A2.4,2.4,0,0,0,364.69,128Z"/><path class="e" d="M361.8,125.35c-0.07,2,1.85,2.22,2.38,3.16a11.92,11.92,0,0,0,.46,3.06,7.78,7.78,0,0,0,.4-3.06s2.45-1,2.37-3.16H361.8Z"/><path class="f" d="M364.64,226.93H358.8V225.3a2.92,2.92,0,0,1,2.92-2.92h0a2.92,2.92,0,0,1,2.92,2.92v1.64Z"/><path class="f" d="M371,226.93h-5.84V225.3a2.92,2.92,0,0,1,2.92-2.92h0A2.92,2.92,0,0,1,371,225.3v1.64Z"/><path class="e" d="M381.43,168.31a1.7,1.7,0,0,1-3.39.07c0-.5,0-1.1-0.06-1.78h3.4C381.4,167.25,381.42,167.83,381.43,168.31Z"/><path class="e" d="M350.9,166.59c0,0.15,0,.3,0,0.45,0,0.69,0,1.31-.06,1.81a1.7,1.7,0,0,1-3.39-.06c0-.49,0-1.06.05-1.71,0-.16,0-0.31,0-0.48h3.4Z"/><polygon class="g" points="367.43 125.34 365.04 128.5 369.81 130.31 367.43 125.34"/><polygon class="g" points="361.78 125.34 364.18 128.5 359.41 130.31 361.78 125.34"/><polygon class="c" points="364.16 168.67 365.11 165.81 366.29 168.48 364.16 168.67"/><ellipse class="e" cx="370.57" cy="113.12" rx="2.26" ry="2.3"/><path class="e" d="M365,122.94h-0.77a5.57,5.57,0,0,1-5.55-5.55v-9c0-3.05,4.31-5.55,5.55-5.55H365a5.57,5.57,0,0,1,5.55,5.55v9A5.57,5.57,0,0,1,365,122.94Z"/><ellipse class="e" cx="358.7" cy="113.12" rx="2.26" ry="2.3"/><path class="d" d="M357.46,106.36c0-2.78,3-5,5.71-5h2.75c2.74,0,6.91,3.08,6.91,5.86,0,0-1.74,6.85-2.63,7.77V110a3.15,3.15,0,0,0-3.12-3.16H362a3.15,3.15,0,0,0-3.12,3.16v4.89C358,114,357.46,106.36,357.46,106.36Z"/><path class="d" d="M367.09,106.89s-8.66,1.48-9.23,8.05a73.45,73.45,0,0,0-.4,8.44s-12.53-16.7,1.24-22.7C367.65,96.77,367.09,106.89,367.09,106.89Z"/><rect class="h" x="299.1" y="101.41" width="16.1" height="54" rx="7.82" ry="7.82" transform="translate(614.31 256.82) rotate(180)"/><path class="b" d="M290.59,169.36a1.67,1.67,0,0,0,3.33.06c0-.49,0-1.09.06-1.77A78.7,78.7,0,0,1,295.74,154c2-9,3.92-21.43,3.94-21.56l-3.35-.11c0,0.12-1.82,12.08-3.84,20.93a81.54,81.54,0,0,0-1.86,14.46C290.62,168.32,290.6,168.89,290.59,169.36Z"/><path class="b" d="M324,169.83a1.67,1.67,0,0,1-3.33.06c0-.49,0-1.09-0.06-1.77a78.7,78.7,0,0,0-1.76-13.69c-2-9-3.92-21.43-3.94-21.56l3.35-.11c0,0.12,1.82,12.08,3.84,20.93a81.54,81.54,0,0,1,1.86,14.46C324,168.79,324,169.35,324,169.83Z"/><path class="e" d="M302.54,224.25h3a129.88,129.88,0,0,1,0-15.59c0.44-8.37.67-39.32,0.67-39.32h-8.31c-0.61,7.09,1.42,15.44,3,24.24,0.88,5,0,8.81.17,13.08C301.44,216.34,302.54,224.25,302.54,224.25Z"/><path class="e" d="M311.33,224.25h-3a129.88,129.88,0,0,0,0-15.59c-0.44-8.37-.67-39.32-0.67-39.32H316c-0.21,8-1.42,15.44-3,24.24-0.88,5,0,8.81-.17,13.08C312.43,216.34,311.33,224.25,311.33,224.25Z"/><path class="b" d="M297.32,169.34H316c-1.31-11-3.45-10.77-3.44-16.74,0-7.2,5.74-19.29,5.74-19.29a6.14,6.14,0,0,0-6.14-6.14h-9.75a6.14,6.14,0,0,0-6.14,6.14s5.11,11.78,5.37,18.78C301.83,157.87,298.16,159.37,297.32,169.34Z"/><path class="e" d="M307.25,129.77h0a2.35,2.35,0,0,0,2.35-2.35v-3.85H304.9v3.85A2.35,2.35,0,0,0,307.25,129.77Z"/><ellipse class="e" cx="301.32" cy="115" rx="2.22" ry="2.26"/><path class="e" d="M307.15,124.65h0a5.85,5.85,0,0,0,5.83-5.83v-8.48c0-3-4.23-5.45-5.45-5.45h-0.38a5.85,5.85,0,0,0-5.83,5.83v8.1A5.85,5.85,0,0,0,307.15,124.65Z"/><ellipse class="e" cx="312.98" cy="115" rx="2.22" ry="2.26"/><path class="h" d="M314.2,108.37c0-1.23-1.21-5.94-5.5-5.7-6.56-3.29-8.41,4.05-8.41,5.7,0,0,.17,8,1,8.89l0.36-5.27a3.09,3.09,0,0,1,3.06-3.11h5A3.09,3.09,0,0,1,312.8,112l0.15,4.9C313.81,116,314.2,108.37,314.2,108.37Z"/><path class="e" d="M311.27,127.17a15,15,0,0,1-4,9.09,11.12,11.12,0,0,1-4-9.09h8Z"/><rect class="e" x="301.63" y="169.34" width="11.92" height="7.08" transform="translate(615.17 345.76) rotate(180)"/><path class="i" d="M307.08,226.93h5.73v-1.61a2.87,2.87,0,0,0-2.87-2.87h0a2.87,2.87,0,0,0-2.87,2.87v1.61Z"/><path class="i" d="M300.88,226.93h5.73v-1.61a2.87,2.87,0,0,0-2.87-2.87h0a2.87,2.87,0,0,0-2.87,2.87v1.61Z"/><path class="b" d="M293.75,187.07l24.68-2s-2.57-15.58-2.91-19.24l-17.45-.21C297.57,168.2,293.75,187.07,293.75,187.07Z"/><rect class="g" x="301.3" y="153.18" width="11.68" height="2.06" transform="translate(614.29 308.42) rotate(180)"/><path class="h" d="M311.83,108.73s-2.87-1.47-5.75,2.79-4.73,1.76-4.73,1.76v-6.43Z"/><path class="d" d="M420.17,103.36s-9-.29-8.69,11.36,8.16,13.82,8.16,13.82h8.84s0.48-11.71.37-11.79S420.17,103.36,420.17,103.36Z"/><path class="k" d="M416.82,224.25h3a129.94,129.94,0,0,1,0-15.6c0.44-8.37.67-39.34,0.67-39.34h-8.31c-0.61,7.09,1.42,15.45,3,24.25,0.88,5,0,8.81.17,13.09C415.72,216.34,416.82,224.25,416.82,224.25Z"/><path class="k" d="M425.61,224.25h-3a129.94,129.94,0,0,0,0-15.6c-0.44-8.37-.67-39.34-0.67-39.34h8.31c0.61,7.09-1.42,15.45-3,24.25-0.88,5,0,8.81-.17,13.09C426.7,216.34,425.61,224.25,425.61,224.25Z"/><path class="b" d="M412.16,169.32h18.09c0.13-7.24-3.46-8.74-3.44-15.94s5.74-20.11,5.74-20.11a6.14,6.14,0,0,0-6.14-6.14h-9.75a6.14,6.14,0,0,0-6.14,6.14s4.7,13,5,20S412,162,412.16,169.32Z"/><path class="e" d="M421.53,129.74h0a2.35,2.35,0,0,0,2.35-2.35v-3.85h-4.71v3.85A2.35,2.35,0,0,0,421.53,129.74Z"/><ellipse class="e" cx="415.6" cy="114.96" rx="2.22" ry="2.26"/><path class="e" d="M421,124.61h0.76a5.47,5.47,0,0,0,5.45-5.45v-8.86c0-3-4.23-5.45-5.45-5.45H421a5.47,5.47,0,0,0-5.45,5.45v8.86A5.47,5.47,0,0,0,421,124.61Z"/><ellipse class="e" cx="427.26" cy="114.96" rx="2.22" ry="2.26"/><path class="d" d="M428.48,108.32c0-2.73-2.93-5-5.61-5h-2.7c-2.69,0-5.61,2.23-5.61,5,0,0,.53,7.53,1.4,8.43v-4.8a3.09,3.09,0,0,1,3.06-3.11h5a3.09,3.09,0,0,1,3.06,3.11v4.8C427.94,115.85,428.48,108.32,428.48,108.32Z"/><path class="e" d="M426.44,127.13c-0.48,5.59-5.09,9.09-5.09,9.09s-5.45-3.19-5.09-9.09h10.17Z"/><rect class="k" x="415.9" y="169.32" width="11.92" height="7.08" transform="translate(843.72 345.72) rotate(180)"/><path class="i" d="M421.36,226.93h5.73v-1.61a2.87,2.87,0,0,0-2.87-2.87h0a2.87,2.87,0,0,0-2.87,2.87v1.61Z"/><path class="i" d="M415.15,226.93h5.73v-1.61a2.87,2.87,0,0,0-2.87-2.87h0a2.87,2.87,0,0,0-2.87,2.87v1.61Z"/><path class="b" d="M404.86,169.34a1.67,1.67,0,0,0,3.33.06c0-.49,0-1.09.06-1.77a78.73,78.73,0,0,1,1.76-13.7c2-9,3.92-21.44,3.94-21.57l-3.35-.11c0,0.12-1.82,12.08-3.84,20.94a81.57,81.57,0,0,0-1.86,14.46C404.89,168.3,404.87,168.87,404.86,169.34Z"/><path class="e" d="M404.86,169.34a1.67,1.67,0,0,0,3.33.06c0-.49,0-1.09.06-1.77l-3.34,0C404.89,168.3,404.87,168.87,404.86,169.34Z"/><path class="b" d="M438.26,169.81a1.67,1.67,0,0,1-3.33.06c0-.49,0-1.09-0.06-1.77a78.73,78.73,0,0,0-1.76-13.7c-2-9-3.92-21.44-3.94-21.57l3.35-.11c0,0.12,1.82,12.08,3.84,20.94a81.57,81.57,0,0,1,1.86,14.46C438.24,168.76,438.25,169.33,438.26,169.81Z"/><path class="e" d="M438.26,169.81a1.67,1.67,0,0,1-3.33.06c0-.49,0-1.09-0.06-1.77l3.34,0C438.24,168.76,438.25,169.33,438.26,169.81Z"/><path class="d" d="M417.81,109.09s8.37,0.23,8.63,8.55c0.2,6.57,0,9.5,0,9.5l-2.13-.12s3.62,1.07,3.87,4.67-0.36,4.54-.36,4.54,8.59-7.55,7.05-13.65-4.78-7.28-3.78-12.52S417.81,96.83,417.81,109.09Z"/><polygon class="l" points="255.04 224.26 251.06 224.26 251.06 171.64 259.39 171.64 255.04 224.26"/><rect class="m" x="250.38" y="221.47" width="5.4" height="3.13" transform="translate(506.15 446.07) rotate(180)"/><polygon class="l" points="244.64 224.26 248.62 224.26 248.62 171.64 240.29 171.64 244.64 224.26"/><rect class="m" x="243.61" y="221.45" width="5.4" height="3.13" transform="translate(492.63 446.02) rotate(180)"/><path class="b" d="M238.13,126.24h24a0,0,0,0,1,0,0v39a6.4,6.4,0,0,1-6.4,6.4H244.54a6.4,6.4,0,0,1-6.4-6.4v-39A0,0,0,0,1,238.13,126.24Z" transform="translate(500.28 297.88) rotate(180)"/><path class="e" d="M250.14,128.84h0a2.57,2.57,0,0,0,2.57-2.57v-3.62h-5.13v3.62A2.57,2.57,0,0,0,250.14,128.84Z"/><ellipse class="e" cx="242.75" cy="111.25" rx="2.74" ry="2.92"/><rect class="e" x="242.75" y="98.16" width="14.41" height="25.56" rx="4.09" ry="4.09" transform="translate(499.91 221.89) rotate(180)"/><ellipse class="e" cx="257.16" cy="111.25" rx="2.74" ry="2.92"/><ellipse class="n" cx="249.95" cy="118.04" rx="4.84" ry="4.81"/><path class="n" d="M242.07,112.89v4.46a7.13,7.13,0,0,0,6.88,7.32h2a7.13,7.13,0,0,0,6.88-7.32v-4.46a6.06,6.06,0,0,0-1.59-4.12v5.71a3.6,3.6,0,0,1-3.47,3.69h-5.66a3.6,3.6,0,0,1-3.47-3.69v-5.71A6.06,6.06,0,0,0,242.07,112.89Z"/><path class="n" d="M257.84,109.08v-6.41c0-3.53-2.49-6.41-5.53-6.41h-4.7c-3,0-5.53,2.89-5.53,6.41v6.41a6.93,6.93,0,0,0,1.59,4.48v-6.21c0-2.21,1.18-7.33,3.09-7.33l6,3.31a3.78,3.78,0,0,1,3.47,4v6.21A6.93,6.93,0,0,0,257.84,109.08Z"/><path class="e" d="M246.74,117.72c0,1,1.34,1.81,3,1.81s3-.81,3-1.81c0,0-2.43,0-3-1.81C249,117.72,246.74,117.72,246.74,117.72Z"/><path class="e" d="M255.5,126.24c0,2.07-2.48,3.75-5.54,3.75s-5.54-1.68-5.54-3.75H255.5Z"/><rect class="l" x="243.65" y="171.64" width="12.99" height="5.57" transform="translate(500.28 348.85) rotate(180)"/><path class="i" d="M250,222.47h6.25a0,0,0,0,1,0,0v1.37a3.09,3.09,0,0,1-3.09,3.09H253a3.09,3.09,0,0,1-3.09-3.09v-1.37A0,0,0,0,1,250,222.47Z" transform="translate(506.15 449.4) rotate(180)"/><path class="i" d="M243.19,222.47h6.25a0,0,0,0,1,0,0v1.37a3.09,3.09,0,0,1-3.09,3.09h-0.07a3.09,3.09,0,0,1-3.09-3.09v-1.37A0,0,0,0,1,243.19,222.47Z" transform="translate(492.63 449.4) rotate(180)"/><path class="b" d="M231.18,170.08c0.08,0.66.17,1.25,0.24,1.77a2.49,2.49,0,0,0,4.92-.73q-0.11-.76-0.24-1.75a114.35,114.35,0,0,1-.57-19.26c0.77-15.78,8.17-18.68,8.24-18.71l-1.57-4.71c-0.44.15-10.68,3.78-11.63,23.18A118.07,118.07,0,0,0,231.18,170.08Z"/><path class="b" d="M256.85,131.57a9.74,9.74,0,0,1,3.69,3.32c1.8,2.48,4,7.18,4.3,15.5a114.65,114.65,0,0,1-.82,19.09c-0.1.73-.19,1.36-0.28,1.91a2.49,2.49,0,0,0,4.91.8c0.09-.52.18-1.12,0.27-1.79a118.64,118.64,0,0,0,.89-20.19c-0.68-19.41-10.88-23.19-11.31-23.34l-1.64,4.7h0Z"/><path class="e" d="M231.18,170.08c0.08,0.66.17,1.25,0.24,1.77a2.49,2.49,0,0,0,4.92-.73q-0.11-.76-0.24-1.75Z"/><path class="e" d="M265.62,174.2a2.49,2.49,0,0,0,3-2c0.09-.52.18-1.12,0.27-1.79l-4.9-.92c-0.1.73-.19,1.36-0.28,1.91A2.49,2.49,0,0,0,265.62,174.2Z"/><path class="b" d="M216.12,69.87a10,10,0,0,1-2.69-.32V65.75a8.94,8.94,0,0,0,2.15.29,2.43,2.43,0,0,0,2.15-.93,5.2,5.2,0,0,0,.65-2.92V42h4.56V62.16a8.48,8.48,0,0,1-1.72,5.74A6.39,6.39,0,0,1,216.12,69.87Z"/><path class="b" d="M247.87,52.76q0,5.34-2.65,8.21t-7.59,2.87q-4.94,0-7.59-2.87t-2.65-8.24q0-5.37,2.66-8.2t7.61-2.83q5,0,7.58,2.85T247.87,52.76Zm-15.69,0a9,9,0,0,0,1.37,5.43A4.79,4.79,0,0,0,237.63,60q5.46,0,5.46-7.25t-5.43-7.27a4.82,4.82,0,0,0-4.1,1.83A8.94,8.94,0,0,0,232.17,52.76Z"/><path class="b" d="M252.32,63.54V42h4.56V63.54h-4.56Z"/><path class="b" d="M281.38,63.54h-5.8l-9.36-16.27h-0.13q0.28,4.31.28,6.15V63.54H262.3V42H268l9.34,16.11h0.1q-0.22-4.19-.22-5.93V42h4.1V63.54Z"/><path class="b" d="M312.12,42V56a8,8,0,0,1-1.07,4.18A6.94,6.94,0,0,1,308,62.88a11,11,0,0,1-4.77,1,9.12,9.12,0,0,1-6.44-2.13,7.54,7.54,0,0,1-2.29-5.82V42H299V55.2a5.51,5.51,0,0,0,1,3.65A4.16,4.16,0,0,0,303.32,60a4.06,4.06,0,0,0,3.24-1.17,5.54,5.54,0,0,0,1-3.67V42h4.54Z"/><path class="b" d="M330.08,57.57a5.56,5.56,0,0,1-2.1,4.59,9.1,9.1,0,0,1-5.83,1.68,13.69,13.69,0,0,1-6.09-1.29V58.31a25.06,25.06,0,0,0,3.68,1.37,10.91,10.91,0,0,0,2.76.4,3.92,3.92,0,0,0,2.3-.57,2,2,0,0,0,.8-1.71,1.89,1.89,0,0,0-.35-1.13,4,4,0,0,0-1-.95,26.76,26.76,0,0,0-2.79-1.46,13.2,13.2,0,0,1-3-1.78,6.68,6.68,0,0,1-1.57-2,5.67,5.67,0,0,1-.59-2.65,5.56,5.56,0,0,1,1.93-4.49,8,8,0,0,1,5.35-1.63,12.61,12.61,0,0,1,3.2.4A22,22,0,0,1,330,43.24l-1.47,3.54a21.56,21.56,0,0,0-2.85-1,9.18,9.18,0,0,0-2.21-.28,2.93,2.93,0,0,0-2,.6,2,2,0,0,0-.69,1.57,1.94,1.94,0,0,0,.28,1.05,3.08,3.08,0,0,0,.89.87,27.52,27.52,0,0,0,2.89,1.51A11.5,11.5,0,0,1,329,54,5.64,5.64,0,0,1,330.08,57.57Z"/><polygon class="o" points="196.72 53.97 199.06 50.66 189.94 43.26 189.94 35.57 185.2 35.57 185.2 39.57 179.7 35.29 160.34 50.66 162.68 53.97 166.76 51.24 166.76 65.81 163.94 65.81 163.94 69.5 195.46 69.5 195.46 65.81 192.64 65.81 192.64 51.24 196.72 53.97"/><polygon class="p" points="196.72 53.97 199.06 50.66 189.94 43.26 189.94 35.57 185.2 35.57 185.2 39.57 179.7 35.29 179.7 69.5 195.46 69.5 195.46 65.81 192.64 65.81 192.64 51.24 196.72 53.97"/><path class="q" d="M184.51,55.35l-1,1.81-0.62-2.52-0.26.7h-1l-1,4.55-0.93-6.28-0.38,1.73h-1.3l-1.18,2.12-0.59-3-0.34.92h-4a5,5,0,0,0,.63.78l7.25,7.25,7-7,0.25-.25a5,5,0,0,0,.63-0.78h-3.07Z"/><path class="q" d="M175.36,54.69l1-2.69,0.7,3.57,0.49-.88h1.15l1-4.76,0.94,6.38L181,54.69h1.09L183,52.37l0.75,3,0.41-.71h3.81a4.95,4.95,0,0,0-8-5.56l-0.25.25-0.25-.25a4.95,4.95,0,0,0-8,5.56h3.9Z"/><rect class="r" width="500" height="250"/></svg>