<svg id="Layer_1" data-name="Layer 1" xmlns="http://www.w3.org/2000/svg" viewBox="0 0 254.9 225.15"><defs><style>.cls-1{fill:#27aae1;}.cls-2{fill:#231f20;opacity:0.1;}.cls-3{fill:#fff;}</style></defs><title>landing-logo</title><g id="house"><polygon class="cls-1" points="239.49 122.96 254.9 101.18 194.87 52.48 194.87 1.83 163.64 1.83 163.64 28.17 127.45 0 0 101.18 15.4 122.96 42.28 104.97 42.28 200.87 23.75 200.87 23.75 225.15 231.15 225.15 231.15 200.87 212.62 200.87 212.62 104.97 239.49 122.96"/><polygon class="cls-2" points="239.49 122.96 254.9 101.18 194.87 52.48 194.87 1.83 163.64 1.83 163.64 28.17 127.45 0 127.45 225.15 231.15 225.15 231.15 200.87 212.62 200.87 212.62 104.97 239.49 122.96"/></g><path class="cls-3" d="M231.5,219.49l-6.83,11.94-4.08-16.58-1.68,4.64h-6.78l-6.81,29.92-6.12-41.31-2.47,11.39H188.2l-7.76,13.94-3.9-20-2.23,6H148a32.71,32.71,0,0,0,4.18,5.11l47.7,47.7,46.08-46.08,1.62-1.62a32.72,32.72,0,0,0,4.18-5.11H231.5Z" transform="translate(-72.38 -87.42)"/><path class="cls-3" d="M171.28,215.14l6.55-17.73,4.59,23.5,3.21-5.77h7.58l6.79-31.3,6.22,42,2.43-10.69h7.2l5.53-15.26,4.91,19.94,2.68-4.69h25.11a32.56,32.56,0,0,0-52.63-36.61l-1.62,1.62-1.62-1.62a32.56,32.56,0,0,0-52.63,36.61h25.7Z" transform="translate(-72.38 -87.42)"/></svg>